<mxfile host="app.diagrams.net" modified="2023-08-27T11:56:41.054Z" agent="Mozilla/5.0 (Macintosh; Intel Mac OS X 10_15_7) AppleWebKit/537.36 (KHTML, like Gecko) Chrome/116.0.0.0 Safari/537.36" version="21.6.8" etag="_eWfzoLtg0y50MVQFfeK" type="github">
  <diagram name="第 1 页" id="M_lp6r22NxMa7Wf6T6G-">
    <mxGraphModel>
      <root>
        <mxCell id="0" />
        <mxCell id="1" parent="0" />
      </root>
    </mxGraphModel>
  </diagram>
</mxfile>
